<svg width="20" height="20" viewBox="0 0 20 20" fill="none" xmlns="http://www.w3.org/2000/svg">
<path d="M0.804108 13.477C0.804108 13.477 0.946108 15.215 0.979108 15.763C1.02311 16.498 1.30711 17.319 1.78111 17.889C2.45011 18.697 3.23811 18.982 4.29011 18.984C5.52711 18.986 14.5221 18.986 15.7591 18.984C16.8111 18.982 17.5991 18.697 18.2681 17.889C18.7421 17.319 19.0261 16.498 19.0711 15.763C19.1031 15.215 19.2451 13.477 19.2451 13.477" stroke="#7F879E" stroke-width="1.5" stroke-linecap="round" stroke-linejoin="round"/>
<path d="M6.496 3.3295V2.9585C6.496 1.7385 7.484 0.750504 8.704 0.750504H11.286C12.505 0.750504 13.494 1.7385 13.494 2.9585L13.495 3.3295" stroke="#7F879E" stroke-width="1.5" stroke-linecap="round" stroke-linejoin="round"/>
<path d="M9.995 14.6782V13.3842" stroke="#7F879E" stroke-width="1.5" stroke-linecap="round" stroke-linejoin="round"/>
<path fill-rule="evenodd" clip-rule="evenodd" d="M0.749908 6.3891V9.8561C2.66791 11.1211 4.96591 12.0071 7.48791 12.3581C7.78991 11.2571 8.78291 10.4501 9.98991 10.4501C11.1779 10.4501 12.1909 11.2571 12.4729 12.3681C15.0049 12.0171 17.3119 11.1311 19.2399 9.8561V6.3891C19.2399 4.6951 17.8769 3.3311 16.1829 3.3311H3.81691C2.12291 3.3311 0.749908 4.6951 0.749908 6.3891Z" stroke="#7F879E" stroke-width="1.5" stroke-linecap="round" stroke-linejoin="round"/>
</svg>
