<svg width="25" height="24" viewBox="0 0 25 24" fill="none" xmlns="http://www.w3.org/2000/svg">
<path d="M12.66 10.87C12.56 10.86 12.44 10.86 12.33 10.87C9.95 10.79 8.06 8.84 8.06 6.44C8.06 3.99 10.04 2 12.5 2C14.95 2 16.94 3.99 16.94 6.44C16.93 8.84 15.04 10.79 12.66 10.87Z" stroke="#7F879E" stroke-width="1.5" stroke-linecap="round" stroke-linejoin="round"/>
<path d="M7.66 14.56C5.24 16.18 5.24 18.82 7.66 20.43C10.41 22.27 14.92 22.27 17.67 20.43C20.09 18.81 20.09 16.17 17.67 14.56C14.93 12.73 10.42 12.73 7.66 14.56Z" stroke="#7F879E" stroke-width="1.5" stroke-linecap="round" stroke-linejoin="round"/>
</svg>
