<svg width="25" height="24" viewBox="0 0 25 24" fill="none" xmlns="http://www.w3.org/2000/svg">
<path d="M13.39 5.88H5.60999C3.89999 5.88 2.5 7.27999 2.5 8.98999V20.35C2.5 21.8 3.54 22.42 4.81 21.71L8.73999 19.52C9.15999 19.29 9.84 19.29 10.25 19.52L14.18 21.71C15.45 22.42 16.49 21.8 16.49 20.35V8.98999C16.5 7.27999 15.1 5.88 13.39 5.88Z" stroke="#7F879E" stroke-width="1.5" stroke-linecap="round" stroke-linejoin="round"/>
<path d="M16.5 8.98999V20.35C16.5 21.8 15.46 22.41 14.19 21.71L10.26 19.52C9.84001 19.29 9.15999 19.29 8.73999 19.52L4.81 21.71C3.54 22.41 2.5 21.8 2.5 20.35V8.98999C2.5 7.27999 3.89999 5.88 5.60999 5.88H13.39C15.1 5.88 16.5 7.27999 16.5 8.98999Z" stroke="#7F879E" stroke-width="1.5" stroke-linecap="round" stroke-linejoin="round"/>
<path d="M22.5 5.10999V16.47C22.5 17.92 21.46 18.53 20.19 17.83L16.5 15.77V8.98999C16.5 7.27999 15.1 5.88 13.39 5.88H8.5V5.10999C8.5 3.39999 9.89999 2 11.61 2H19.39C21.1 2 22.5 3.39999 22.5 5.10999Z" stroke="#7F879E" stroke-width="1.5" stroke-linecap="round" stroke-linejoin="round"/>
</svg>
